<svg xmlns="http://www.w3.org/2000/svg" version="1.1" xmlns:xlink="http://www.w3.org/1999/xlink" width="150" height="150"><svg width="150" height="150" viewBox="0 0 150 150" fill="none" xmlns="http://www.w3.org/2000/svg">
<rect width="150" height="150" fill="#F7EED3"></rect>
<path d="M29.8713 88.5H21.5493V58.8419H29.8713V69.8641H35.2717L41.1148 58.8419H50.5434L42.1772 73.5381L50.3664 88.5H40.805L35.3603 77.9647H29.8713V88.5ZM75.1518 88.5H51.204V58.8419H75.1518V66.3228H59.526V69.9083H74.4878V77.345H59.526V81.0191H75.1518V88.5ZM100.898 88.5H77.703V58.8419H86.025V81.0191H100.898V88.5ZM110.352 88.5H100.702L109.068 73.7595V73.3611L100.702 58.8419H110.485L115.885 68.4918H116.284L121.286 58.8419H130.936L122.658 73.184V73.5824L130.936 88.5H121.153L115.753 78.9386H115.354L110.352 88.5Z" fill="#674636"></path>
</svg><style>@media (prefers-color-scheme: light) { :root { filter: none; } }
@media (prefers-color-scheme: dark) { :root { filter: none; } }
</style></svg>