<svg width="41" height="11" viewBox="0 0 41 11" fill="none" xmlns="http://www.w3.org/2000/svg">
<path d="M3.07389 10.9548H2.79002e-07V-1.20748e-06H3.07389V4.07126H5.06864L7.2269 -1.20748e-06H10.7095L7.61931 5.42835L10.6441 10.9548H7.11245L5.10134 7.0634H3.07389V10.9548ZM19.7991 10.9548H10.9535V-1.20748e-06H19.7991V2.76323H14.0274V4.08761H19.5539V6.83449H14.0274V8.19158H19.7991V10.9548ZM29.3091 10.9548H20.7414V-1.20748e-06H23.8153V8.19158H29.3091V10.9548ZM32.8011 10.9548H29.2367L32.3269 5.5101V5.36295L29.2367 -1.20748e-06H32.8501L34.8449 3.5644H34.992L36.8396 -1.20748e-06H40.404L37.3465 5.29755V5.4447L40.404 10.9548H36.7906L34.7958 7.42311H34.6487L32.8011 10.9548Z" fill="#674636"/>
</svg>
